<?xml version="1.0" encoding="UTF-8"?>
<svg id="Calque_2" data-name="Calque 2" xmlns="http://www.w3.org/2000/svg" viewBox="0 0 988.65 369.51">
  <defs>
    <style>
      .cls-1 {
        fill: #63412e;
      }
    </style>
  </defs>
  <g id="Calque_1-2" data-name="Calque 1">
    <g>
      <path class="cls-1" d="M2.36,285.5c4.44-20,13.12-36.25,26.07-48.75,12.94-12.5,27.87-22.33,44.8-29.5,16.92-7.16,34.7-12.16,53.33-15,18.63-2.83,35.98-4.41,52.05-4.75,1.44-8,2.53-16.66,3.27-26,.73-9.33.41-18-.98-26-1.4-8-4.44-14.58-9.12-19.75-4.69-5.16-11.7-7.75-21.03-7.75-7.67,0-14.66,1.84-20.97,5.5-6.32,3.67-11.87,8.42-16.66,14.25-4.8,5.84-8.86,12.5-12.19,20-3.34,7.5-5.85,15.09-7.55,22.75-2,0-6.27.09-12.81.25-6.54.17-13.01-.33-19.42-1.5-6.41-1.16-11.95-3.25-16.61-6.25-4.67-3-6.34-7.5-5-13.5,1.18-5.33,4.91-11.25,11.19-17.75,6.27-6.5,14.48-12.66,24.61-18.5,10.12-5.83,21.78-10.66,34.97-14.5,13.18-3.83,27.44-5.75,42.78-5.75,23.66,0,41.63,3.92,53.89,11.75,12.26,7.84,20.83,17.67,25.7,29.5,4.87,11.84,6.98,24.5,6.31,38-.67,13.5-2.25,25.92-4.77,37.25l-22.09,99.5c-1.85,8.34-2.54,15.17-2.05,20.5.48,5.34,1.64,9.5,3.48,12.5s4.29,5.09,7.36,6.25c3.07,1.17,6.28,1.75,9.61,1.75l-3.33,15h-55c-6.67,0-12.49-1.16-17.47-3.5-4.98-2.33-8.14-6.5-9.48-12.5-9.48,6.67-20.03,11.75-31.64,15.25-11.61,3.5-24.09,5.25-37.42,5.25-14,0-26.23-2-36.67-6-10.45-4-18.85-9.66-25.23-17-6.37-7.33-10.66-16.16-12.87-26.5-2.21-10.33-1.9-21.83.91-34.5ZM174.23,209.5l1.55-7c-10.56,1-21.9,3.67-34.03,8-12.13,4.34-23.68,10.17-34.63,17.5-10.96,7.34-20.53,15.92-28.72,25.75-8.18,9.84-13.68,21.09-16.49,33.75-3.77,17-1.31,30.67,7.4,41,8.71,10.34,22.39,15.5,41.06,15.5,12.33,0,24.29-2.83,35.89-8.5l27.97-126Z"/>
      <path class="cls-1" d="M351.25,259c-7.4,33.34-10.37,56.84-8.9,70.5,1.47,13.67,6.53,20.5,15.2,20.5l-3.33,15h-113s3.33-15,3.33-15c8.66,0,16.77-6.83,24.3-20.5,7.53-13.66,15-37.16,22.4-70.5l45.06-203c1.85-8.33,2.53-15.16,2.05-20.5-.49-5.33-1.64-9.5-3.48-12.5s-4.29-5.08-7.36-6.25c-3.08-1.16-6.28-1.75-9.61-1.75l3.33-15h87.5s-57.49,259-57.49,259Z"/>
      <path class="cls-1" d="M434.65,117.5h-25.5s3.33-15,3.33-15c9,0,18.27-2.33,27.8-7,9.54-4.66,18.33-10.5,26.38-17.5,8.05-7,15.02-14.75,20.91-23.25,5.89-8.5,9.68-16.58,11.38-24.25h15s-14.87,67-14.87,67h49.5s-4.44,20-4.44,20h-49.5s-41.4,186.5-41.4,186.5c-.89,4-1.47,8.09-1.72,12.25-.26,4.17.14,8,1.2,11.5,1.05,3.5,3.07,6.42,6.06,8.75,2.98,2.34,7.3,3.5,12.97,3.5,6.33,0,12.71-2.83,19.14-8.5,6.42-5.66,12.54-14.83,18.35-27.5l13.61,4c-2.11,5-5.21,11.09-9.3,18.25-4.09,7.17-9.26,13.92-15.5,20.25-6.24,6.34-13.78,11.75-22.61,16.25-8.83,4.5-19.08,6.75-30.75,6.75-18.74.33-32.75-7.16-42.01-22.5-9.27-15.33-10.31-39.16-3.13-71.5,2.37-10.66,5.09-22.91,8.16-36.75,3.07-13.83,6.2-27.91,9.38-42.25,3.18-14.33,6.31-28.41,9.38-42.25,3.07-13.83,5.79-26.08,8.16-36.75Z"/>
      <path class="cls-1" d="M804.39,184.22c-.29-3.73-.76-7.35-1.4-10.87-.03-.2-.06-.4-.1-.6-1.02-5.47-2.36-10.66-4.04-15.59-3.59-10.54-8.69-19.84-15.3-27.91-9.71-11.83-22.05-20.83-37.01-27-14.96-6.16-31.78-9.25-50.44-9.25-2.88,0-5.74.07-8.6.22-8.23.42-16.37,1.45-24.44,3.1-7.32,1.47-14.57,3.45-21.77,5.93-.15.05-.31.11-.46.17-.88.31-1.75.62-2.62.94-16.67,6.11-31.98,14.74-45.91,25.89-14.8,11.84-27.68,26.34-38.66,43.5-10.98,17.17-18.9,36.75-23.79,58.75-4.88,22-5.63,41.5-2.23,58.5,3.39,17,9.85,31.42,19.4,43.25,9.53,11.84,21.87,20.84,37,27,15.13,6.16,32.03,9.25,50.7,9.25s36.85-3.09,54.55-9.25c17.7-6.16,34.03-15.16,49-27,14.95-11.83,27.82-26.25,38.6-43.25,10.77-17,18.6-36.5,23.48-58.5,2.8-12.58,4.27-24.38,4.41-35.38.06-4.08-.06-8.04-.37-11.9ZM737.85,231.5c-3.4,15.34-8.32,30.34-14.74,45-6.42,14.67-14.08,27.75-22.96,39.25-8.89,11.5-18.55,20.84-28.96,28-10.43,7.17-21.48,10.75-33.14,10.75s-21.21-3.58-28.61-10.75c-7.41-7.16-12.93-16.5-16.54-28-3.62-11.5-5.38-24.58-5.29-39.25.09-14.66,1.84-29.66,5.24-45,3.7-16.66,8.8-32.5,15.3-47.5,6.49-15,14.06-28.08,22.71-39.25,5.36-6.93,11.09-12.99,17.16-18.2,3.72-3.17,7.56-6.03,11.53-8.55.39-.25.79-.5,1.18-.73,6.99-4.26,14.24-7.05,21.75-8.37,3.38-.6,6.8-.9,10.29-.9,11.66,0,21.17,3.34,28.53,10,6.42,5.83,11.51,13.38,15.27,22.64.54,1.33,1.05,2.7,1.54,4.11,1.66,4.83,2.95,10.02,3.86,15.56.66,4,1.12,8.18,1.39,12.54.24,3.59.33,7.31.29,11.15-.17,15-2.1,30.84-5.8,47.5Z"/>
      <circle class="cls-1" cx="818.16" cy="343.98" r="25.53"/>
      <path class="cls-1" d="M935.43,194.62c-24.7,13.66-53.92,16.51-81.56,14.21-21.94-2.08-44.37-6.95-66.8-13.83-20.93-6.42-41.87-14.59-62.42-23.91-28.13-12.74-55.55-27.62-81.24-43.04-7.67-4.6-15.18-9.25-22.52-13.91.87-.32,1.74-.63,2.62-.94.15-.06.31-.12.46-.17,7.2-2.48,14.45-4.46,21.77-5.93,8.07-1.65,16.21-2.68,24.44-3.1,32.68,22.69,71.74,46.56,111.35,63.94,69.22,30.37,140.12,40.93,181.63-9.28,30.22-36.12,24.01-92.71-4.28-128.27-3.77-4.48-8.07-8.63-13.24-11.53,5.33,2.61,9.92,6.55,13.98,10.88,12.14,13.24,20.19,29.79,24.92,47.08,13.13,47.91-5.69,93.37-49.11,117.8Z"/>
    </g>
  </g>
</svg>